<?xml version="1.0" encoding="utf-8"?>
<!-- Generator: Adobe Illustrator 22.0.1, SVG Export Plug-In . SVG Version: 6.00 Build 0)  -->
<svg version="1.1" id="图层_1" xmlns="http://www.w3.org/2000/svg" xmlns:xlink="http://www.w3.org/1999/xlink" x="0px" y="0px"
	 viewBox="0 0 3412.5 1023.9" style="enable-background:new 0 0 3412.5 1023.9;" xml:space="preserve">
<style type="text/css">
	.st0{fill:#109CD2;}
	.st1{fill:#1BC2EA;}
	.st2{fill:#FFFFFF;}
</style>
<title>logo</title>
<path class="st0" d="M1020.5,696.4l-99.1-462.8L764.8,252c-127.6,15-408.5-51-612.9-180l-1.4-0.9L0,838.6l0,0
	c320.9-187.1,659.5-237.4,816.8-195.9L1020.5,696.4z"/>
<path class="st1" d="M771.3,1023.9c90.3-60.1,299.8-118.3,242.8-376.8l-94.7-429.3C888.2,76.2,665.8,0,665.8,0L771.3,1023.9z"/>
<path class="st2" d="M1369.8,354.1v313h-30.3V517.7h-159.2v149.4h-30.3v-313h30.3v133.3h159.2V354.1H1369.8z"/>
<path class="st2" d="M1603.4,665.3l-9.8,1.8c-10.4,1.5-21.2,3.1-32.3,4.9c-11,1.8-22.1,2.7-33.2,2.7c-13.5,0.1-27-1.6-40.1-4.9
	c-12.7-3.2-24.3-9.6-33.9-18.5c-9.8-9.1-17.5-21.5-23.2-37.2c-5.7-15.8-8.2-36.1-7.6-61.1c0.3-10.4,1.3-20.7,2.9-31
	c1.5-9.9,3.9-19.7,7.1-29.2c2.9-8.8,6.9-17.2,11.8-25c4.5-7.1,10-13.4,16.5-18.7c8.5-5.4,17.7-9.4,27.4-12
	c10.4-2.9,21.1-4.4,31.9-4.5c11.3,0,22.6,1.6,33.4,4.7c10.6,2.9,20.3,8.5,28.1,16.3c10.1,10.1,17.7,24.9,22.7,44.4
	c5.1,19.5,7.1,42.3,6.2,68.5h-157.9c0.6,15.8,3.1,28.7,7.6,38.8c4.5,10.1,10.1,18.1,17,23.9c6.7,5.7,14.6,9.8,23.2,12
	c8.7,2.2,17.7,3.4,26.8,3.3c10.4,0,20.9-0.7,31.2-2.2c10.4-1.5,20.1-3,29-4.5c2.4-0.6,4.5-1.1,6.5-1.6c1.9-0.4,3.5-0.8,4.7-1.1
	L1603.4,665.3z M1478.6,474.1c-7.1,5.1-12.6,13.2-16.3,24.2c-4,12.2-6.6,24.9-7.8,37.7H1582c-0.3-14.4-2.2-26.5-5.8-36.6
	c-3.6-10-8.6-18.2-15.1-24.5v0.5c-5.1-4.6-11.2-8-17.8-9.6c-7.3-2-14.8-2.9-22.3-2.9c-8,0-15.9,0.9-23.6,2.9
	C1490.6,467.4,1484.3,470.2,1478.6,474.1z"/>
<path class="st2" d="M1704.2,352.3v313h-30.3v-313H1704.2z"/>
<path class="st2" d="M1813,352.3v313h-30.3v-313H1813z"/>
<path class="st2" d="M1979.8,433.9c18.4,0.6,34,4.6,46.8,12s22.5,18.5,29,33.4c4.4,11.1,7.7,22.7,9.6,34.6
	c2.3,13.3,3.4,26.8,3.3,40.4c0,13.1-1.1,26.1-3.3,39c-2,11.7-5.2,23.1-9.6,34.1c-3.6,8.5-8.8,16.1-15.4,22.5
	c-6.3,6-13.6,10.9-21.6,14.5c-8.1,3.6-16.7,6.1-25.4,7.4c-8.9,1.3-17.8,2-26.8,2c-18.7-0.9-34.6-5-47.5-12.3
	c-12.9-7.3-22.5-18.2-28.8-32.8c-4.5-11.2-7.6-22.9-9.4-34.8c-2.1-13.3-3.1-26.7-3.1-40.1c0-13.1,1-26.1,3.1-39
	c1.9-11.8,5-23.4,9.4-34.6c3.5-8.5,8.9-16.1,15.6-22.3c6.4-5.9,13.7-10.7,21.6-14.3c8.1-3.6,16.7-6.2,25.4-7.6
	C1961.7,434.6,1970.7,433.9,1979.8,433.9z M1978.9,464.3c-12.4-0.4-24.7,1.5-36.3,5.6c-11,3.6-19.9,11.8-24.3,22.5v-0.5
	c-3.8,9.1-6.4,18.7-7.8,28.5c-1.7,11.1-2.5,22.2-2.4,33.4c0,11.6,0.9,23.1,2.7,34.6c1.4,9.8,4,19.5,7.6,28.8v-0.5
	c3.4,8.4,9.7,15.3,17.8,19.4c8.3,4.3,18.7,6.8,31.2,7.4c6.1,0,12.1-0.5,18.1-1.6c5.9-1,11.7-2.7,17.2-5.1c5.2-2.3,10.1-5.3,14.5-8.9
	c4.3-3.6,7.9-8,10.5-13c3.6-9.1,6.2-18.6,7.8-28.3c1.9-10.7,2.9-21.5,2.9-32.3c0-11.5-0.9-23-2.9-34.3c-1.7-10-4.3-19.9-7.8-29.4
	v0.4c-3.4-8.5-9.7-15.4-17.8-19.6C2001.3,466.8,1991.1,464.5,1978.9,464.3L1978.9,464.3z"/>
<path class="st2" d="M2120.7,480.3l60.2-126.6c2.7-5.3,5.6-10.6,8.7-15.8c3.1-5.1,6.7-9.8,10.9-14c4.3-4.2,9.3-7.7,14.7-10.3
	c6-2.7,12.6-4.1,19.2-4h169c6.7-0.1,13.3,1.3,19.4,4c5.6,2.6,10.8,6,15.4,10.3c4.5,4.2,8.4,9,11.6,14.2c3.2,5.2,5.9,10.8,8,16.5
	l57.5,126.2l-27.6,12l-17.4-37.9h-137.3v91h144.5v30.3h-144.5v92.3h181.5v30.3h-393.3v-30.3h181.5v-92.3h-144.5v-30.3h144.5v-91
	h-136.9l-18.3,38.4L2120.7,480.3z M2180,424.5h276l-26.3-58c-2.3-6.7-5.7-12.9-10-18.5c-4.3-5.5-9.7-8.3-16.3-8.3h-169
	c-6,0-11.1,3-15.4,8.9c-4.2,5.8-8,11.9-11.4,18.3L2180,424.5z"/>
<path class="st2" d="M2623.2,701.9V406.7h-63.3v-30.3h157v30.3h-63.3v295.2H2623.2z M2712,334.9h-146.2v-30.4H2712L2712,334.9z
	 M2567.5,699.2l6.3-271.1l30.3,0.9l-6.2,271.1L2567.5,699.2z M2679.4,701.9V428.5h30.3v273.4H2679.4z M2968.4,702.4h-55.7
	c-7.5,0.1-15-1.5-21.9-4.5c-13.5-5.7-24.2-16.4-29.9-29.9c-3-6.9-4.5-14.3-4.5-21.8V545.4c-4.2,21.7-10,40.7-17.6,57.1
	c-7.1,15.6-16.3,30.2-27.4,43.3c-10.5,12.3-22.7,23.1-36.1,32.1c-13.8,9.1-28.2,17.2-43.2,24.1l-12-28.1c16-6.9,31.1-15.7,45-26.1
	c14-10.6,25.9-23.7,35.2-38.6c9.8-15.5,17.5-33.9,23.2-55.3c5.6-21.4,8.5-47.1,8.5-77.1V370.6h30.3v106.1c0,24.1-1.8,45.6-5.4,64.7
	h29.9v104.8c-0.2,7,2.6,13.7,7.6,18.5c4.8,4.8,11.4,7.5,18.3,7.4h55.7L2968.4,702.4z M2927,569.1V345.2c0.3-9.3-6.9-17.1-16.2-17.4
	c0,0,0,0,0,0c-0.4,0-0.8,0-1.2,0h-117.4c-9.3-0.3-17.1,6.9-17.4,16.2c0,0,0,0,0,0c0,0.4,0,0.8,0,1.2V569h-30.3V345.2
	c0-6.4,1.3-12.7,3.8-18.5c4.9-11.4,14-20.5,25.4-25.4c5.8-2.5,12.1-3.8,18.5-3.8h117.3c6.4,0,12.7,1.3,18.5,3.8
	c11.4,4.9,20.5,14,25.4,25.4c2.5,5.8,3.8,12.1,3.8,18.5V569L2927,569.1z"/>
<path class="st2" d="M3045.5,350.5c0-7.5,1.4-14.9,4.2-21.9c2.7-6.7,6.7-12.7,11.8-17.8c5.1-5.1,11.2-9.2,17.8-12
	c6.9-3,14.3-4.5,21.9-4.5h223.9c7.5,0,15,1.5,21.9,4.5c13.5,5.7,24.2,16.4,29.9,29.9c3,6.9,4.5,14.3,4.5,21.9v85.2
	c0,7.5-1.5,15-4.5,21.9c-5.7,13.4-16.4,24.2-29.9,29.9c-6.9,3-14.3,4.5-21.9,4.5h-49.9l137.3,72.2l-13.8,27.2l-84.3-44.2V701h-30.3
	V531.1l-74.9-39.2h-0.4c-9.5,9.1-19.9,17.3-31,24.5c-12.7,8.3-25.9,15.9-39.5,22.7l0.4,36.1c0.3,16.7-1.4,31.4-5.1,44.2
	c-3.5,12.4-9.4,24.1-17.2,34.3c-8.2,10.5-18.1,19.7-29.2,27c-13,8.5-26.8,15.8-41.3,21.6l-11.6-27.7c11.4-4.8,22.4-10.6,32.8-17.4
	c8.8-5.8,16.7-12.9,23.2-21.2c6.2-8,10.8-17.1,13.6-26.8c3-10,4.5-21.3,4.5-34.1L3108,553c-13.7,5.7-28.1,11.1-43.3,16.3
	s-31.5,10.2-49.1,14.9l-8-29.4c33.3-8.9,62.6-18.7,87.9-29.2s46.8-21.8,64.7-33.7h-58.9c-7.5,0-15-1.5-21.9-4.5
	c-6.7-2.8-12.7-6.9-17.8-12c-5.1-5.1-9.2-11.2-11.9-17.9c-2.8-6.9-4.3-14.4-4.2-21.9L3045.5,350.5z M3075.9,380.8h120.8v-56.2h-95.4
	c-6.7,0-13.2,2.7-17.8,7.6c-4.9,4.8-7.7,11.4-7.6,18.3L3075.9,380.8z M3075.9,435.7c-0.1,6.9,2.6,13.5,7.6,18.3
	c4.6,4.9,11.1,7.6,17.8,7.6h95.4v-50.4h-120.8L3075.9,435.7z M3227,324.7v56.1h124v-30.3c0-14.3-11.6-25.8-25.9-25.9L3227,324.7z
	 M3325.1,461.6c14.3,0,25.9-11.6,25.9-25.9v-24.6h-124v50.4L3325.1,461.6z"/>
</svg>
